<?xml version="1.0" encoding="utf-8"?>
<!-- Svg Vector Icons : http://www.onlinewebfonts.com/icon -->
<!DOCTYPE svg PUBLIC "-//W3C//DTD SVG 1.1//EN" "http://www.w3.org/Graphics/SVG/1.1/DTD/svg11.dtd">
<svg version="1.1" xmlns="http://www.w3.org/2000/svg" xmlns:xlink="http://www.w3.org/1999/xlink" x="0px" y="0px" viewBox="0 0 256 256" enable-background="new 0 0 256 256" xml:space="preserve">
<metadata> Svg Vector Icons : http://www.onlinewebfonts.com/icon </metadata>
<g><g><g><path stroke-width="4" fill-opacity="0" stroke="#000000"  d="M52.8,24.6c-2.4,0.4-6.1,3-7.6,5.4c-1.3,2.2-1.4,2.6-1.6,8l-0.1,5.7H29c-13.8,0-14.6,0-16,0.9c-2.5,1.6-3,3.2-3,10.8V62h12c12.2,0,13.3,0.1,14.6,1.8c0.9,1.2,0.7,3.2-0.6,4.4l-1.1,1.2H23.6H12.3v68.2v68.2h10.8c8.7,0,11.2,0.1,12.2,0.7c2,1,2.5,3.3,1.2,5.2c-0.7,1-0.8,1-13.6,1H10v7.1c0,6.5,0.1,7.1,1.1,8.6c2.3,3.4-2.4,3.2,62,3.2c62.6,0,59.4,0.1,61.9-2.5c1.1-1.2,1.2-1.5,1.3-8.9l0.1-7.6h-1.2H134v-4.4v-4.4h27.8c23.9,0,28.2-0.1,30.2-0.7c4.8-1.4,8.2-6,10-13.6c4.2-17.9,15-31.3,32.3-39.9c5.8-2.9,8.4-5.3,10.2-9l1.3-2.9l0.1-29.5c0.1-22.5,0-30-0.5-31.6c-0.7-2.7-4-6-6.6-6.8c-1.5-0.4-14.2-0.6-53.4-0.6H134v-3.7c0-3.6,0-3.7,1.2-3.7h1.2V55c0-6.1-0.1-7.2-0.9-8.5c-1.7-2.9-2.1-2.9-18.2-2.9h-14.5v-5.2c0-4.7-0.1-5.4-1.2-7.6c-0.6-1.3-1.9-3-2.9-3.8c-3.2-2.7-4.3-2.8-25.4-2.7C62.7,24.3,53.5,24.5,52.8,24.6z M152.8,82.9c0.4,0.4,0.6,2.1,0.6,4.6c0,4.8-0.1,5-5.2,5c-4.7,0-5.1-0.4-5.3-4.6c-0.1-2.5,0-3.5,0.6-4.4c0.7-1.1,1-1.2,4.8-1.2C150.8,82.3,152.5,82.5,152.8,82.9z M173,83.5c0.6,0.9,0.7,1.9,0.6,4.4c-0.2,4.1-0.7,4.6-5.3,4.6c-5,0-5.2-0.1-5.2-5c0-2.5,0.2-4.2,0.6-4.6c0.4-0.4,2.1-0.6,4.6-0.6C172,82.3,172.3,82.4,173,83.5z M192.8,83.3c0.5,0.7,0.7,2.1,0.7,4.1c0,4.4-0.6,5-5.4,5c-4.8,0-5.2-0.4-5.2-5.3c0-2.3,0.2-4,0.6-4.3c0.4-0.4,2.1-0.6,4.6-0.6C191.7,82.3,192.1,82.4,192.8,83.3z M212.5,83.1c1.2,1.2,1.2,7.1-0.1,8.4c-1.2,1.2-7.5,1.3-8.9,0.1c-1.1-1-1.2-7.5-0.1-8.6C204.5,82,211.3,82,212.5,83.1z M232.4,83.1c0.6,0.5,0.7,1.7,0.7,4.2c0,4.8-0.4,5.2-5.2,5.2c-5,0-5.4-0.4-5.4-5.1s0.3-5,5.3-5C230.8,82.3,231.9,82.5,232.4,83.1z M152.7,181.7c0.9,0.9,1.1,8,0.2,8.9c-0.4,0.4-2.1,0.6-4.6,0.6c-3.8,0-4.1,0-4.8-1.2c-1.1-1.7-0.7-7.4,0.5-8.3C145.2,180.7,151.7,180.8,152.7,181.7z M172.5,181.6c1.2,0.9,1.6,6.7,0.5,8.3c-0.7,1.1-1,1.2-4.8,1.2c-2.5,0-4.2-0.2-4.6-0.6c-0.4-0.4-0.6-2.1-0.6-4.6c0-3.3,0.1-4.1,0.8-4.5C165.1,180.8,171.5,180.9,172.5,181.6z M192.6,181.9c0.7,0.7,0.9,1.5,0.9,4.1c0,4.7-0.5,5.2-5.1,5.2c-5.3,0-5.5-0.1-5.5-4.7c0-5.1,0.4-5.4,5.2-5.4C191.1,181,191.8,181.1,192.6,181.9z"/></g></g></g>
</svg>